# Blender v2.67 (sub 0) OBJ File: 'frame.blend'
# www.blender.org
o Plane
v 1.000000 -1.000000 0.030000
v -1.000000 -1.000000 0.030000
v 1.000000 1.000000 0.030000
v -1.000000 1.000000 0.030000
v 1.000000 -1.000000 -0.030000
v -1.000000 -1.000000 -0.030000
v 1.000000 1.000000 -0.030000
v -1.000000 1.000000 -0.030000
v 0.000000 -1.000000 0.030000
v 0.000000 1.000000 0.030000
v 1.000000 0.000000 0.030000
v -1.000000 0.000000 0.030000
v 0.000000 -1.000000 -0.030000
v 0.000000 1.000000 -0.030000
v 1.000000 -0.000000 -0.030000
v -1.000000 -0.000000 -0.030000
v -0.950000 -1.000000 0.030000
v -0.950000 1.000000 0.030000
v 1.000000 0.950000 0.030000
v -1.000000 -0.950000 0.030000
v -0.950000 -1.000000 -0.030000
v -0.950000 1.000000 -0.030000
v 1.000000 0.950000 -0.030000
v -1.000000 -0.950000 -0.030000
v 0.950000 -1.000000 0.030000
v 0.950000 1.000000 0.030000
v 1.000000 -0.950000 0.030000
v -1.000000 0.950000 0.030000
v 0.950000 -1.000000 -0.030000
v 0.950000 1.000000 -0.030000
v 1.000000 -0.950000 -0.030000
v -1.000000 0.950000 -0.030000
v 0.950000 0.000000 0.030000
v -0.950000 0.000000 0.030000
v 0.000000 -0.950000 0.030000
v 0.000000 0.950000 0.030000
v 0.000000 0.950000 -0.030000
v 0.000000 -0.950000 -0.030000
v -0.950000 -0.000000 -0.030000
v 0.950000 -0.000000 -0.030000
v 0.950000 0.950000 0.030000
v 0.950000 0.950000 -0.030000
v 0.950000 -0.950000 0.030000
v -0.950000 -0.950000 0.030000
v -0.950000 0.950000 0.030000
v -0.950000 0.950000 -0.030000
v -0.950000 -0.950000 -0.030000
v 0.950000 -0.950000 -0.030000
vt 0.012500 0.013953
vt 0.012462 0.001491
vt 0.000000 0.001529
vt 0.986047 0.512500
vt 0.998509 0.512462
vt 0.986009 0.500038
vt 0.533005 0.012508
vt 0.547959 0.012462
vt 0.547921 0.000000
vt 0.500038 0.012508
vt 0.514992 0.012462
vt 0.514954 0.000000
vt 0.549488 0.012508
vt 0.564442 0.012462
vt 0.549450 0.000046
vt 0.516522 0.012508
vt 0.531476 0.012462
vt 0.531438 0.000000
vt 0.486047 0.012500
vt 0.486009 0.000038
vt 0.249235 0.000765
vt 0.013953 0.487500
vt 0.013226 0.250726
vt 0.000765 0.250765
vt 0.987500 0.986047
vt 0.999962 0.986009
vt 0.986774 0.749274
vt 0.512500 0.513953
vt 0.749274 0.513226
vt 0.512462 0.501491
vt 0.534458 0.486055
vt 0.549412 0.486009
vt 0.548685 0.249235
vt 0.501491 0.486055
vt 0.516445 0.486009
vt 0.515719 0.249235
vt 0.550941 0.486055
vt 0.565895 0.486009
vt 0.550215 0.249281
vt 0.517974 0.486055
vt 0.532929 0.486009
vt 0.532202 0.249235
vt 0.249274 0.013226
vt 0.000038 0.013991
vt 0.999235 0.749235
vt 0.749235 0.500765
vt 0.533731 0.249281
vt 0.500765 0.249281
vt 0.565169 0.249235
vt 0.517248 0.249281
vt 0.498509 0.012462
vt 0.498471 0.000000
vt 0.499235 0.249235
vt 0.499962 0.486009
vt 0.486774 0.249274
vt 0.500000 0.498471
vt 0.487500 0.486047
vt 0.487538 0.498509
vt 0.250726 0.486774
vt 0.250765 0.499235
vt 0.013991 0.499962
vt 0.001491 0.487538
vt 0.987538 0.998509
vt 1.000000 0.998471
vt 0.750765 0.999235
vt 0.750726 0.986774
vt 0.513991 0.999962
vt 0.513953 0.987500
vt 0.501529 1.000000
vt 0.501491 0.987538
vt 0.500765 0.750765
vt 0.513226 0.750726
vt 0.500038 0.513991
vt 0.500000 0.501529
vt 0.534496 0.498517
vt 0.549450 0.498471
vt 0.501529 0.498517
vt 0.516483 0.498471
vt 0.550979 0.498517
vt 0.565933 0.498471
vt 0.518013 0.498517
vt 0.532967 0.498471
vt 0.615880 0.236820
vt 0.616607 0.473593
vt 0.630835 0.236774
vt 0.615154 0.000046
vt 0.630108 0.000000
vt 0.599474 0.236820
vt 0.600200 0.473593
vt 0.615154 0.473547
vt 0.598747 0.000046
vt 0.614428 0.236774
vt 0.566660 0.236820
vt 0.567386 0.473593
vt 0.582340 0.473547
vt 0.565933 0.000046
vt 0.581614 0.236774
vt 0.583067 0.236774
vt 0.597295 0.473593
vt 0.583793 0.000000
vt 0.598021 0.236819
vt 0.998471 0.500000
vt 0.532967 0.000046
vt 0.500000 0.000046
vt 0.564404 0.000000
vt 0.516483 0.000046
vt 0.001529 0.500000
vt 0.631561 0.473547
vt 0.613701 0.000000
vt 0.580888 0.000000
vn 0.000000 0.000000 1.000000
vn 0.000000 -0.000000 -1.000000
vn 0.000000 1.000000 0.000000
vn 1.000000 0.000000 -0.000000
vn -1.000000 0.000000 0.000000
vn 0.000000 -1.000000 0.000000
s off
f 41/1/1 19/2/1 3/3/1
f 42/4/2 30/5/2 23/6/2
f 18/7/3 22/8/3 8/9/3
f 19/10/4 23/11/4 7/12/4
f 20/13/5 24/14/5 2/15/5
f 25/16/6 29/17/6 5/18/6
f 43/19/1 27/20/1 11/21/1
f 45/22/1 36/23/1 10/24/1
f 46/25/2 22/26/2 37/27/2
f 48/28/2 40/29/2 31/30/2
f 26/31/3 30/32/3 14/33/3
f 27/34/4 31/35/4 15/36/4
f 28/37/5 32/38/5 12/39/5
f 17/40/6 21/41/6 13/42/6
f 33/43/1 11/21/1 19/2/1
f 36/23/1 41/1/1 26/44/1
f 37/27/2 14/45/2 42/4/2
f 40/29/2 42/4/2 15/46/2
f 10/47/3 14/33/3 22/8/3
f 11/48/4 15/36/4 23/11/4
f 12/39/5 16/49/5 20/13/5
f 9/50/6 13/42/6 29/17/6
f 25/51/1 1/52/1 27/20/1
f 9/53/1 25/51/1 43/19/1
f 17/54/1 9/53/1 35/55/1
f 2/56/1 17/54/1 44/57/1
f 20/58/1 44/57/1 34/59/1
f 12/60/1 34/59/1 45/22/1
f 28/61/1 45/22/1 18/62/1
f 32/63/2 8/64/2 46/25/2
f 16/65/2 32/63/2 39/66/2
f 24/67/2 16/65/2 47/68/2
f 6/69/2 24/67/2 21/70/2
f 21/70/2 47/68/2 13/71/2
f 13/71/2 38/72/2 29/73/2
f 29/73/2 48/28/2 5/74/2
f 3/75/3 7/76/3 30/32/3
f 1/77/4 5/78/4 31/35/4
f 4/79/5 8/80/5 28/37/5
f 2/81/6 6/82/6 21/41/6
f 33/83/5 41/84/5 40/85/5
f 43/86/5 33/83/5 48/87/5
f 35/88/3 43/89/3 48/90/3
f 44/91/3 35/88/3 38/92/3
f 34/93/4 44/94/4 47/95/4
f 45/96/4 34/93/4 39/97/4
f 36/98/6 45/95/6 46/99/6
f 41/100/6 36/98/6 37/101/6
f 26/44/1 41/1/1 3/3/1
f 30/5/2 7/102/2 23/6/2
f 4/103/3 18/7/3 8/9/3
f 3/104/4 19/10/4 7/12/4
f 24/14/5 6/105/5 2/15/5
f 1/106/6 25/16/6 5/18/6
f 33/43/1 43/19/1 11/21/1
f 18/62/1 45/22/1 10/24/1
f 22/26/2 14/45/2 37/27/2
f 40/29/2 15/46/2 31/30/2
f 10/47/3 26/31/3 14/33/3
f 11/48/4 27/34/4 15/36/4
f 32/38/5 16/49/5 12/39/5
f 9/50/6 17/40/6 13/42/6
f 41/1/1 33/43/1 19/2/1
f 10/24/1 36/23/1 26/44/1
f 14/45/2 30/5/2 42/4/2
f 42/4/2 23/6/2 15/46/2
f 18/7/3 10/47/3 22/8/3
f 19/10/4 11/48/4 23/11/4
f 16/49/5 24/14/5 20/13/5
f 25/16/6 9/50/6 29/17/6
f 43/19/1 25/51/1 27/20/1
f 35/55/1 9/53/1 43/19/1
f 44/57/1 17/54/1 35/55/1
f 20/58/1 2/56/1 44/57/1
f 12/60/1 20/58/1 34/59/1
f 28/61/1 12/60/1 45/22/1
f 4/107/1 28/61/1 18/62/1
f 8/64/2 22/26/2 46/25/2
f 32/63/2 46/25/2 39/66/2
f 16/65/2 39/66/2 47/68/2
f 24/67/2 47/68/2 21/70/2
f 47/68/2 38/72/2 13/71/2
f 38/72/2 48/28/2 29/73/2
f 48/28/2 31/30/2 5/74/2
f 26/31/3 3/75/3 30/32/3
f 27/34/4 1/77/4 31/35/4
f 8/80/5 32/38/5 28/37/5
f 17/40/6 2/81/6 21/41/6
f 41/84/5 42/108/5 40/85/5
f 33/83/5 40/85/5 48/87/5
f 38/92/3 35/88/3 48/90/3
f 47/109/3 44/91/3 38/92/3
f 39/97/4 34/93/4 47/95/4
f 46/110/4 45/96/4 39/97/4
f 37/101/6 36/98/6 46/99/6
f 42/91/6 41/100/6 37/101/6
