# Blender v2.67 (sub 0) OBJ File: 'basti.blend'
# www.blender.org
o Eye.001_Sphere.004
v 0.024406 0.122696 0.628920
v 0.047874 0.240677 0.592430
v 0.069502 0.349409 0.533173
v 0.047874 0.115577 0.628920
v 0.093908 0.226713 0.592430
v 0.136333 0.329136 0.533173
v 0.069502 0.104017 0.628920
v 0.136333 0.204036 0.592430
v 0.197925 0.296215 0.533173
v 0.088459 0.088459 0.628920
v 0.173519 0.173519 0.592430
v 0.251910 0.251910 0.533173
v 0.104017 0.069502 0.628920
v 0.204037 0.136333 0.592430
v 0.296215 0.197924 0.533173
v 0.115578 0.047874 0.628920
v 0.226713 0.093907 0.592430
v 0.329137 0.136333 0.533173
v 0.122696 0.024406 0.628920
v 0.240678 0.047874 0.592430
v 0.349410 0.069502 0.533173
v 0.125100 -0.000000 0.628920
v 0.245393 -0.000000 0.592430
v 0.356255 -0.000000 0.533173
v 0.122696 -0.024406 0.628920
v 0.240678 -0.047874 0.592430
v 0.349410 -0.069502 0.533173
v 0.115577 -0.047874 0.628920
v 0.226713 -0.093908 0.592430
v 0.329137 -0.136333 0.533173
v 0.104017 -0.069502 0.628920
v 0.204037 -0.136333 0.592430
v 0.296215 -0.197925 0.533173
v 0.088459 -0.088459 0.628920
v 0.173519 -0.173519 0.592430
v 0.251910 -0.251910 0.533173
v 0.069502 -0.104017 0.628920
v 0.136333 -0.204037 0.592430
v 0.197925 -0.296215 0.533173
v 0.047874 -0.115578 0.628920
v 0.093908 -0.226713 0.592430
v 0.136333 -0.329137 0.533173
v 0.024406 -0.122697 0.628920
v 0.047874 -0.240678 0.592430
v 0.069502 -0.349410 0.533173
v -0.000000 -0.125100 0.628920
v 0.000000 -0.245393 0.592430
v 0.000000 -0.356255 0.533173
v -0.024406 -0.122697 0.628920
v -0.047874 -0.240678 0.592430
v -0.069502 -0.349410 0.533173
v -0.047874 -0.115578 0.628920
v -0.093908 -0.226713 0.592430
v -0.136333 -0.329137 0.533173
v -0.069502 -0.104017 0.628920
v -0.136333 -0.204037 0.592430
v -0.197925 -0.296215 0.533173
v -0.088459 -0.088459 0.628920
v -0.173519 -0.173519 0.592430
v -0.251910 -0.251910 0.533173
v -0.104017 -0.069502 0.628920
v -0.204036 -0.136333 0.592430
v -0.296215 -0.197925 0.533173
v -0.115577 -0.047874 0.628920
v -0.226713 -0.093908 0.592430
v -0.329136 -0.136333 0.533173
v -0.122696 -0.024406 0.628920
v -0.240677 -0.047874 0.592430
v -0.349409 -0.069502 0.533173
v -0.125100 -0.000000 0.628920
v -0.245392 -0.000000 0.592430
v -0.356255 -0.000000 0.533173
v -0.122696 0.024406 0.628920
v -0.240677 0.047873 0.592430
v -0.349409 0.069502 0.533173
v -0.115577 0.047874 0.628920
v -0.226713 0.093907 0.592430
v -0.329136 0.136333 0.533173
v -0.104017 0.069502 0.628920
v -0.204036 0.136333 0.592430
v -0.296215 0.197924 0.533173
v -0.088459 0.088459 0.628920
v -0.173519 0.173518 0.592430
v -0.251910 0.251910 0.533173
v -0.069502 0.104017 0.628920
v -0.136333 0.204036 0.592430
v -0.197924 0.296215 0.533173
v -0.047874 0.115577 0.628920
v -0.093908 0.226713 0.592430
v -0.136333 0.329136 0.533173
v -0.024406 0.122696 0.628920
v -0.047874 0.240677 0.592430
v -0.069502 0.349409 0.533173
v 0.000000 0.125100 0.628920
v 0.000000 0.245392 0.592430
v 0.000000 0.356254 0.533173
vt 0.319226 0.319226
vt 0.319226 0.287917
vt 0.305774 0.287917
vt 0.301369 0.319226
vt 0.301369 0.287917
vt 0.287917 0.287917
vt 0.337083 0.354940
vt 0.337083 0.323631
vt 0.323631 0.323631
vt 0.390655 0.033512
vt 0.390655 0.002203
vt 0.377203 0.002203
vt 0.033512 0.390655
vt 0.033512 0.359345
vt 0.020060 0.359345
vt 0.015655 0.390655
vt 0.015655 0.359345
vt 0.002203 0.359345
vt 0.069226 0.390655
vt 0.069226 0.359345
vt 0.055774 0.359345
vt 0.051369 0.390655
vt 0.051369 0.359345
vt 0.037917 0.359345
vt 0.408512 0.104940
vt 0.408512 0.073631
vt 0.395060 0.073631
vt 0.390655 0.140655
vt 0.390655 0.109346
vt 0.377203 0.109346
vt 0.426369 0.140655
vt 0.426369 0.109346
vt 0.412917 0.109346
vt 0.408512 0.140655
vt 0.408512 0.109346
vt 0.395060 0.109346
vt 0.122797 0.426369
vt 0.122797 0.395060
vt 0.109346 0.395060
vt 0.176369 0.390655
vt 0.176369 0.359345
vt 0.162917 0.359345
vt 0.212083 0.390655
vt 0.212083 0.359345
vt 0.198631 0.359345
vt 0.194226 0.390655
vt 0.194226 0.359345
vt 0.180774 0.359345
vt 0.408512 0.176369
vt 0.408512 0.145060
vt 0.395060 0.145060
vt 0.390655 0.212083
vt 0.390655 0.180774
vt 0.377203 0.180774
vt 0.426369 0.212083
vt 0.426369 0.180774
vt 0.412917 0.180774
vt 0.265655 0.390655
vt 0.265655 0.359345
vt 0.252203 0.359345
vt 0.283512 0.426369
vt 0.283512 0.395060
vt 0.270060 0.395060
vt 0.265655 0.426369
vt 0.265655 0.395060
vt 0.252203 0.395060
vt 0.426369 0.247797
vt 0.426369 0.216488
vt 0.412917 0.216488
vt 0.408512 0.283512
vt 0.408512 0.252203
vt 0.395060 0.252203
vt 0.301369 0.390655
vt 0.301369 0.359345
vt 0.287917 0.359345
vt 0.354940 0.390655
vt 0.354940 0.359345
vt 0.341488 0.359345
vt 0.426369 0.319226
vt 0.426369 0.287917
vt 0.412917 0.287917
vt 0.408512 0.319226
vt 0.408512 0.287917
vt 0.395060 0.287917
vt 0.372797 0.354940
vt 0.372797 0.323631
vt 0.359345 0.323631
vt 0.426369 0.354940
vt 0.426369 0.323631
vt 0.412917 0.323631
vt 0.426369 0.426369
vt 0.426369 0.395060
vt 0.412917 0.395060
vt 0.408512 0.426369
vt 0.408512 0.395060
vt 0.395060 0.395060
vt 0.462083 0.033512
vt 0.462083 0.002203
vt 0.448631 0.033512
vt 0.444226 0.033512
vt 0.444226 0.002203
vt 0.430774 0.033512
vt 0.015655 0.462083
vt 0.015655 0.430774
vt 0.002203 0.462083
vt 0.069226 0.462083
vt 0.069226 0.430774
vt 0.055774 0.462083
vt 0.033512 0.497797
vt 0.033512 0.466488
vt 0.020060 0.497797
vt 0.015655 0.497797
vt 0.015655 0.466488
vt 0.002203 0.497797
vt 0.444226 0.140655
vt 0.444226 0.109346
vt 0.430774 0.140655
vt 0.497797 0.140655
vt 0.497797 0.109346
vt 0.484345 0.140655
vt 0.104940 0.462083
vt 0.104940 0.430774
vt 0.091488 0.462083
vt 0.087083 0.462083
vt 0.087083 0.430774
vt 0.073631 0.462083
vt 0.176369 0.462083
vt 0.176369 0.430774
vt 0.162917 0.462083
vt 0.158512 0.462083
vt 0.158512 0.430774
vt 0.145060 0.430774
vt 0.176369 0.497797
vt 0.176369 0.466488
vt 0.162917 0.497797
vt 0.444226 0.176369
vt 0.444226 0.145060
vt 0.430774 0.176369
vt 0.462083 0.212083
vt 0.462083 0.180774
vt 0.448631 0.212083
vt 0.444226 0.212083
vt 0.444226 0.180774
vt 0.430774 0.212083
vt 0.462083 0.247797
vt 0.462083 0.216488
vt 0.448631 0.247797
vt 0.444226 0.283512
vt 0.444226 0.252203
vt 0.430774 0.283512
vt 0.479940 0.283512
vt 0.479940 0.252203
vt 0.466488 0.283512
vt 0.247797 0.462083
vt 0.247797 0.430774
vt 0.234345 0.462083
vt 0.462083 0.319226
vt 0.462083 0.287917
vt 0.448631 0.319226
vt 0.444226 0.319226
vt 0.444226 0.287917
vt 0.430774 0.319226
vt 0.479940 0.319226
vt 0.479940 0.287917
vt 0.466488 0.319226
vt 0.462083 0.354940
vt 0.462083 0.323631
vt 0.448631 0.354940
vt 0.337083 0.462083
vt 0.337083 0.430774
vt 0.323631 0.462083
vt 0.319226 0.497797
vt 0.319226 0.466488
vt 0.305774 0.497797
vt 0.354940 0.497797
vt 0.354940 0.466488
vt 0.341488 0.497797
vt 0.337083 0.497797
vt 0.337083 0.466488
vt 0.323631 0.497797
vt 0.479940 0.426369
vt 0.479940 0.395060
vt 0.466488 0.426369
vt 0.390655 0.462083
vt 0.390655 0.430774
vt 0.377203 0.462083
vt 0.426369 0.462083
vt 0.426369 0.430774
vt 0.412917 0.462083
vt 0.408512 0.462083
vt 0.408512 0.430774
vt 0.395060 0.462083
vt 0.305774 0.319226
vt 0.287917 0.319226
vt 0.323631 0.354940
vt 0.377203 0.033512
vt 0.020060 0.390655
vt 0.002203 0.390655
vt 0.055774 0.390655
vt 0.037917 0.390655
vt 0.395060 0.104940
vt 0.377203 0.140655
vt 0.412917 0.140655
vt 0.395060 0.140655
vt 0.109346 0.426369
vt 0.162917 0.390655
vt 0.198631 0.390655
vt 0.180774 0.390655
vt 0.395060 0.176369
vt 0.377203 0.212083
vt 0.412917 0.212083
vt 0.252203 0.390655
vt 0.270060 0.426369
vt 0.252203 0.426369
vt 0.412917 0.247797
vt 0.395060 0.283512
vt 0.287917 0.390655
vt 0.341488 0.390655
vt 0.412917 0.319226
vt 0.395060 0.319226
vt 0.359345 0.354940
vt 0.412917 0.354940
vt 0.412917 0.426369
vt 0.395060 0.426369
vt 0.448631 0.002203
vt 0.430774 0.002203
vt 0.002203 0.430774
vt 0.055774 0.430774
vt 0.020060 0.466488
vt 0.002203 0.466488
vt 0.430774 0.109346
vt 0.484345 0.109346
vt 0.091488 0.430774
vt 0.073631 0.430774
vt 0.162917 0.430774
vt 0.145060 0.462083
vt 0.162917 0.466488
vt 0.430774 0.145060
vt 0.448631 0.180774
vt 0.430774 0.180774
vt 0.448631 0.216488
vt 0.430774 0.252203
vt 0.466488 0.252203
vt 0.234345 0.430774
vt 0.448631 0.287917
vt 0.430774 0.287917
vt 0.466488 0.287917
vt 0.448631 0.323631
vt 0.323631 0.430774
vt 0.305774 0.466488
vt 0.341488 0.466488
vt 0.323631 0.466488
vt 0.466488 0.395060
vt 0.377203 0.430774
vt 0.412917 0.430774
vt 0.395060 0.430774
vn 0.000000 0.387860 0.921690
vn 0.000000 0.290262 0.956938
vn 0.056612 0.284677 0.956938
vn 0.000000 0.471389 0.881893
vn 0.075655 0.380413 0.921690
vn 0.111057 0.268166 0.956938
vn 0.091952 0.462325 0.881893
vn 0.148412 0.358348 0.921690
vn 0.161260 0.241340 0.956938
vn 0.180395 0.435499 0.881893
vn 0.215491 0.322489 0.921690
vn 0.205237 0.205237 0.956938
vn 0.261879 0.391949 0.881893
vn 0.274270 0.274270 0.921690
vn 0.241340 0.161260 0.956938
vn 0.333323 0.333323 0.881893
vn 0.322489 0.215491 0.921690
vn 0.268166 0.111057 0.956938
vn 0.391949 0.261879 0.881893
vn 0.358348 0.148412 0.921690
vn 0.284677 0.056612 0.956938
vn 0.435499 0.180395 0.881893
vn 0.380413 0.075655 0.921690
vn 0.290262 0.000000 0.956938
vn 0.462325 0.091952 0.881893
vn 0.387860 0.000000 0.921690
vn 0.284677 -0.056612 0.956938
vn 0.471389 0.000000 0.881893
vn 0.380413 -0.075655 0.921690
vn 0.462325 -0.091952 0.881893
vn 0.358348 -0.148412 0.921690
vn 0.268166 -0.111057 0.956938
vn 0.241340 -0.161260 0.956938
vn 0.435499 -0.180395 0.881893
vn 0.322489 -0.215491 0.921690
vn 0.391949 -0.261879 0.881893
vn 0.274270 -0.274270 0.921690
vn 0.205237 -0.205237 0.956938
vn 0.161260 -0.241340 0.956938
vn 0.333323 -0.333323 0.881893
vn 0.215491 -0.322489 0.921690
vn 0.111057 -0.268166 0.956938
vn 0.261879 -0.391949 0.881893
vn 0.148412 -0.358348 0.921690
vn 0.056612 -0.284677 0.956938
vn 0.180395 -0.435499 0.881893
vn 0.075655 -0.380413 0.921690
vn 0.000000 -0.290262 0.956938
vn 0.091952 -0.462325 0.881893
vn 0.000000 -0.387860 0.921690
vn -0.075655 -0.380413 0.921690
vn 0.000000 -0.471389 0.881893
vn -0.091952 -0.462325 0.881893
vn -0.056612 -0.284677 0.956938
vn -0.148412 -0.358348 0.921690
vn -0.180395 -0.435499 0.881893
vn -0.111057 -0.268166 0.956938
vn -0.215491 -0.322489 0.921690
vn -0.261879 -0.391949 0.881893
vn -0.161260 -0.241340 0.956938
vn -0.274270 -0.274270 0.921690
vn -0.333323 -0.333323 0.881893
vn -0.205237 -0.205237 0.956938
vn -0.322489 -0.215491 0.921690
vn -0.391949 -0.261879 0.881893
vn -0.241340 -0.161260 0.956938
vn -0.358348 -0.148412 0.921690
vn -0.435499 -0.180395 0.881893
vn -0.462325 -0.091952 0.881893
vn -0.268166 -0.111057 0.956938
vn -0.380413 -0.075655 0.921690
vn -0.284707 -0.056612 0.956938
vn -0.387860 0.000000 0.921690
vn -0.471389 0.000000 0.881893
vn -0.462325 0.091952 0.881893
vn -0.290262 0.000000 0.956938
vn -0.380413 0.075655 0.921690
vn -0.284707 0.056612 0.956938
vn -0.358348 0.148412 0.921690
vn -0.435499 0.180395 0.881893
vn -0.268166 0.111057 0.956938
vn -0.322489 0.215491 0.921690
vn -0.391949 0.261879 0.881893
vn -0.241340 0.161260 0.956938
vn -0.274270 0.274270 0.921690
vn -0.333323 0.333323 0.881893
vn -0.205237 0.205237 0.956938
vn -0.215491 0.322489 0.921690
vn -0.261879 0.391949 0.881893
vn -0.161260 0.241340 0.956938
vn -0.148412 0.358348 0.921690
vn -0.180395 0.435499 0.881893
vn -0.111057 0.268166 0.956938
vn -0.075655 0.380413 0.921690
vn -0.091952 0.462325 0.881893
vn -0.056612 0.284707 0.956938
s 1
f 95/1/1 94/2/2 1/3/3
f 96/4/4 95/5/1 2/6/5
f 2/7/5 1/8/3 4/9/6
f 3/10/7 2/11/5 5/12/8
f 5/13/8 4/14/6 7/15/9
f 6/16/10 5/17/8 8/18/11
f 8/19/11 7/20/9 10/21/12
f 9/22/13 8/23/11 11/24/14
f 11/25/14 10/26/12 13/27/15
f 12/28/16 11/29/14 14/30/17
f 14/31/17 13/32/15 16/33/18
f 15/34/19 14/35/17 17/36/20
f 17/37/20 16/38/18 19/39/21
f 18/40/22 17/41/20 20/42/23
f 20/43/23 19/44/21 22/45/24
f 21/46/25 20/47/23 23/48/26
f 23/49/26 22/50/24 25/51/27
f 24/52/28 23/53/26 26/54/29
f 27/55/30 26/56/29 29/57/31
f 26/58/29 25/59/27 28/60/32
f 29/61/31 28/62/32 31/63/33
f 30/64/34 29/65/31 32/66/35
f 33/67/36 32/68/35 35/69/37
f 32/70/35 31/71/33 34/72/38
f 35/73/37 34/74/38 37/75/39
f 36/76/40 35/77/37 38/78/41
f 38/79/41 37/80/39 40/81/42
f 39/82/43 38/83/41 41/84/44
f 41/85/44 40/86/42 43/87/45
f 42/88/46 41/89/44 44/90/47
f 44/91/47 43/92/45 46/93/48
f 45/94/49 44/95/47 47/96/50
f 47/97/50 46/98/48 50/99/51
f 48/100/52 47/101/50 51/102/53
f 50/103/51 49/104/54 53/105/55
f 51/106/53 50/107/51 54/108/56
f 53/109/55 52/110/57 56/111/58
f 54/112/56 53/113/55 57/114/59
f 56/115/58 55/116/60 59/117/61
f 57/118/59 56/119/58 60/120/62
f 59/121/61 58/122/63 62/123/64
f 60/124/62 59/125/61 63/126/65
f 62/127/64 61/128/66 65/129/67
f 63/130/65 62/131/64 65/132/67
f 66/133/68 65/134/67 69/135/69
f 65/136/67 64/137/70 68/138/71
f 68/139/71 67/140/72 71/141/73
f 69/142/69 68/143/71 72/144/74
f 72/145/74 71/146/73 75/147/75
f 71/148/73 70/149/76 74/150/77
f 74/151/77 73/152/78 77/153/79
f 75/154/75 74/155/77 78/156/80
f 77/157/79 76/158/81 80/159/82
f 78/160/80 77/161/79 81/162/83
f 80/163/82 79/164/84 83/165/85
f 81/166/83 80/167/82 84/168/86
f 83/169/85 82/170/87 86/171/88
f 84/172/86 83/173/85 87/174/89
f 86/175/88 85/176/90 89/177/91
f 87/178/89 86/179/88 90/180/92
f 89/181/91 88/182/93 92/183/94
f 90/184/92 89/185/91 93/186/95
f 92/187/94 91/188/96 95/189/1
f 93/190/95 92/191/94 96/192/4
f 2/193/5 95/1/1 1/3/3
f 3/194/7 96/4/4 2/6/5
f 5/195/8 2/7/5 4/9/6
f 6/196/10 3/10/7 5/12/8
f 8/197/11 5/13/8 7/15/9
f 9/198/13 6/16/10 8/18/11
f 11/199/14 8/19/11 10/21/12
f 12/200/16 9/22/13 11/24/14
f 14/201/17 11/25/14 13/27/15
f 15/202/19 12/28/16 14/30/17
f 17/203/20 14/31/17 16/33/18
f 18/204/22 15/34/19 17/36/20
f 20/205/23 17/37/20 19/39/21
f 21/206/25 18/40/22 20/42/23
f 23/207/26 20/43/23 22/45/24
f 24/208/28 21/46/25 23/48/26
f 26/209/29 23/49/26 25/51/27
f 27/210/30 24/52/28 26/54/29
f 30/211/34 27/55/30 29/57/31
f 29/212/31 26/58/29 28/60/32
f 32/213/35 29/61/31 31/63/33
f 33/214/36 30/64/34 32/66/35
f 36/215/40 33/67/36 35/69/37
f 35/216/37 32/70/35 34/72/38
f 38/217/41 35/73/37 37/75/39
f 39/218/43 36/76/40 38/78/41
f 41/219/44 38/79/41 40/81/42
f 42/220/46 39/82/43 41/84/44
f 44/221/47 41/85/44 43/87/45
f 45/222/49 42/88/46 44/90/47
f 47/223/50 44/91/47 46/93/48
f 48/224/52 45/94/49 47/96/50
f 46/98/48 49/225/54 50/99/51
f 47/101/50 50/226/51 51/102/53
f 49/104/54 52/227/57 53/105/55
f 50/107/51 53/228/55 54/108/56
f 52/110/57 55/229/60 56/111/58
f 53/113/55 56/230/58 57/114/59
f 55/116/60 58/231/63 59/117/61
f 56/119/58 59/232/61 60/120/62
f 58/122/63 61/233/66 62/123/64
f 59/125/61 62/234/64 63/126/65
f 61/128/66 64/235/70 65/129/67
f 66/236/68 63/130/65 65/132/67
f 65/134/67 68/237/71 69/135/69
f 64/137/70 67/238/72 68/138/71
f 67/140/72 70/239/76 71/141/73
f 68/143/71 71/240/73 72/144/74
f 71/146/73 74/241/77 75/147/75
f 70/149/76 73/242/78 74/150/77
f 73/152/78 76/243/81 77/153/79
f 74/155/77 77/244/79 78/156/80
f 76/158/81 79/245/84 80/159/82
f 77/161/79 80/246/82 81/162/83
f 79/164/84 82/247/87 83/165/85
f 80/167/82 83/248/85 84/168/86
f 82/170/87 85/249/90 86/171/88
f 83/173/85 86/250/88 87/174/89
f 85/176/90 88/251/93 89/177/91
f 86/179/88 89/252/91 90/180/92
f 88/182/93 91/253/96 92/183/94
f 89/185/91 92/254/94 93/186/95
f 91/188/96 94/255/2 95/189/1
f 92/191/94 95/256/1 96/192/4
